<?xml version="1.0" encoding="utf-8" standalone="no"?>
<!DOCTYPE svg PUBLIC "-//W3C//DTD SVG 1.1//EN"
  "http://www.w3.org/Graphics/SVG/1.1/DTD/svg11.dtd">
<svg xmlns:xlink="http://www.w3.org/1999/xlink" width="568.8pt" height="208.87625pt" viewBox="0 0 568.8 208.87625" xmlns="http://www.w3.org/2000/svg" version="1.1">
 <metadata>
  <rdf:RDF xmlns:dc="http://purl.org/dc/elements/1.1/" xmlns:cc="http://creativecommons.org/ns#" xmlns:rdf="http://www.w3.org/1999/02/22-rdf-syntax-ns#">
   <cc:Work>
    <dc:type rdf:resource="http://purl.org/dc/dcmitype/StillImage"/>
    <dc:date>2024-06-21T15:06:20.374085</dc:date>
    <dc:format>image/svg+xml</dc:format>
    <dc:creator>
     <cc:Agent>
      <dc:title>Matplotlib v3.8.4, https://matplotlib.org/</dc:title>
     </cc:Agent>
    </dc:creator>
   </cc:Work>
  </rdf:RDF>
 </metadata>
 <defs>
  <style type="text/css">*{stroke-linejoin: round; stroke-linecap: butt}</style>
 </defs>
 <g id="figure_1">
  <g id="patch_1">
   <path d="M 0 208.87625 
L 568.8 208.87625 
L 568.8 0 
L 0 0 
z
" style="fill: #ffffff"/>
  </g>
  <g id="axes_1">
   <g id="patch_2">
    <path d="M 7.2 184.998125 
L 171.96 184.998125 
L 171.96 22.318125 
L 7.2 22.318125 
z
" style="fill: #ffffff"/>
   </g>
   <g id="matplotlib.axis_1">
    <g id="xtick_1">
     <g id="line2d_1">
      <defs>
       <path id="m01b0fbb1ea" d="M 0 0 
L 0 3.5 
" style="stroke: #000000; stroke-width: 0.8"/>
      </defs>
      <g>
       <use xlink:href="#m01b0fbb1ea" x="31.525784" y="184.998125" style="stroke: #000000; stroke-width: 0.8"/>
      </g>
     </g>
     <g id="text_1">
      <!-- −2 -->
      <g transform="translate(24.15469 199.596562) scale(0.1 -0.1)">
       <defs>
        <path id="DejaVuSans-2212" d="M 678 2272 
L 4684 2272 
L 4684 1741 
L 678 1741 
L 678 2272 
z
" transform="scale(0.015625)"/>
        <path id="DejaVuSans-32" d="M 1228 531 
L 3431 531 
L 3431 0 
L 469 0 
L 469 531 
Q 828 903 1448 1529 
Q 2069 2156 2228 2338 
Q 2531 2678 2651 2914 
Q 2772 3150 2772 3378 
Q 2772 3750 2511 3984 
Q 2250 4219 1831 4219 
Q 1534 4219 1204 4116 
Q 875 4013 500 3803 
L 500 4441 
Q 881 4594 1212 4672 
Q 1544 4750 1819 4750 
Q 2544 4750 2975 4387 
Q 3406 4025 3406 3419 
Q 3406 3131 3298 2873 
Q 3191 2616 2906 2266 
Q 2828 2175 2409 1742 
Q 1991 1309 1228 531 
z
" transform="scale(0.015625)"/>
       </defs>
       <use xlink:href="#DejaVuSans-2212"/>
       <use xlink:href="#DejaVuSans-32" x="83.789062"/>
      </g>
     </g>
    </g>
    <g id="xtick_2">
     <g id="line2d_2">
      <g>
       <use xlink:href="#m01b0fbb1ea" x="93.235754" y="184.998125" style="stroke: #000000; stroke-width: 0.8"/>
      </g>
     </g>
     <g id="text_2">
      <!-- 0 -->
      <g transform="translate(90.054504 199.596562) scale(0.1 -0.1)">
       <defs>
        <path id="DejaVuSans-30" d="M 2034 4250 
Q 1547 4250 1301 3770 
Q 1056 3291 1056 2328 
Q 1056 1369 1301 889 
Q 1547 409 2034 409 
Q 2525 409 2770 889 
Q 3016 1369 3016 2328 
Q 3016 3291 2770 3770 
Q 2525 4250 2034 4250 
z
M 2034 4750 
Q 2819 4750 3233 4129 
Q 3647 3509 3647 2328 
Q 3647 1150 3233 529 
Q 2819 -91 2034 -91 
Q 1250 -91 836 529 
Q 422 1150 422 2328 
Q 422 3509 836 4129 
Q 1250 4750 2034 4750 
z
" transform="scale(0.015625)"/>
       </defs>
       <use xlink:href="#DejaVuSans-30"/>
      </g>
     </g>
    </g>
    <g id="xtick_3">
     <g id="line2d_3">
      <g>
       <use xlink:href="#m01b0fbb1ea" x="154.945724" y="184.998125" style="stroke: #000000; stroke-width: 0.8"/>
      </g>
     </g>
     <g id="text_3">
      <!-- 2 -->
      <g transform="translate(151.764474 199.596562) scale(0.1 -0.1)">
       <use xlink:href="#DejaVuSans-32"/>
      </g>
     </g>
    </g>
   </g>
   <g id="matplotlib.axis_2">
    <g id="ytick_1">
     <g id="line2d_4">
      <defs>
       <path id="md22f70a726" d="M 0 0 
L 3.5 0 
" style="stroke: #000000; stroke-width: 0.8"/>
      </defs>
      <g>
       <use xlink:href="#md22f70a726" x="171.96" y="177.60358" style="stroke: #000000; stroke-width: 0.8"/>
      </g>
     </g>
     <g id="text_4">
      <!-- MITOTIC_SPINDLE -->
      <g transform="translate(178.96 181.314517) scale(0.1 -0.1)">
       <defs>
        <path id="DejaVuSans-4d" d="M 628 4666 
L 1569 4666 
L 2759 1491 
L 3956 4666 
L 4897 4666 
L 4897 0 
L 4281 0 
L 4281 4097 
L 3078 897 
L 2444 897 
L 1241 4097 
L 1241 0 
L 628 0 
L 628 4666 
z
" transform="scale(0.015625)"/>
        <path id="DejaVuSans-49" d="M 628 4666 
L 1259 4666 
L 1259 0 
L 628 0 
L 628 4666 
z
" transform="scale(0.015625)"/>
        <path id="DejaVuSans-54" d="M -19 4666 
L 3928 4666 
L 3928 4134 
L 2272 4134 
L 2272 0 
L 1638 0 
L 1638 4134 
L -19 4134 
L -19 4666 
z
" transform="scale(0.015625)"/>
        <path id="DejaVuSans-4f" d="M 2522 4238 
Q 1834 4238 1429 3725 
Q 1025 3213 1025 2328 
Q 1025 1447 1429 934 
Q 1834 422 2522 422 
Q 3209 422 3611 934 
Q 4013 1447 4013 2328 
Q 4013 3213 3611 3725 
Q 3209 4238 2522 4238 
z
M 2522 4750 
Q 3503 4750 4090 4092 
Q 4678 3434 4678 2328 
Q 4678 1225 4090 567 
Q 3503 -91 2522 -91 
Q 1538 -91 948 565 
Q 359 1222 359 2328 
Q 359 3434 948 4092 
Q 1538 4750 2522 4750 
z
" transform="scale(0.015625)"/>
        <path id="DejaVuSans-43" d="M 4122 4306 
L 4122 3641 
Q 3803 3938 3442 4084 
Q 3081 4231 2675 4231 
Q 1875 4231 1450 3742 
Q 1025 3253 1025 2328 
Q 1025 1406 1450 917 
Q 1875 428 2675 428 
Q 3081 428 3442 575 
Q 3803 722 4122 1019 
L 4122 359 
Q 3791 134 3420 21 
Q 3050 -91 2638 -91 
Q 1578 -91 968 557 
Q 359 1206 359 2328 
Q 359 3453 968 4101 
Q 1578 4750 2638 4750 
Q 3056 4750 3426 4639 
Q 3797 4528 4122 4306 
z
" transform="scale(0.015625)"/>
        <path id="DejaVuSans-5f" d="M 3263 -1063 
L 3263 -1509 
L -63 -1509 
L -63 -1063 
L 3263 -1063 
z
" transform="scale(0.015625)"/>
        <path id="DejaVuSans-53" d="M 3425 4513 
L 3425 3897 
Q 3066 4069 2747 4153 
Q 2428 4238 2131 4238 
Q 1616 4238 1336 4038 
Q 1056 3838 1056 3469 
Q 1056 3159 1242 3001 
Q 1428 2844 1947 2747 
L 2328 2669 
Q 3034 2534 3370 2195 
Q 3706 1856 3706 1288 
Q 3706 609 3251 259 
Q 2797 -91 1919 -91 
Q 1588 -91 1214 -16 
Q 841 59 441 206 
L 441 856 
Q 825 641 1194 531 
Q 1563 422 1919 422 
Q 2459 422 2753 634 
Q 3047 847 3047 1241 
Q 3047 1584 2836 1778 
Q 2625 1972 2144 2069 
L 1759 2144 
Q 1053 2284 737 2584 
Q 422 2884 422 3419 
Q 422 4038 858 4394 
Q 1294 4750 2059 4750 
Q 2388 4750 2728 4690 
Q 3069 4631 3425 4513 
z
" transform="scale(0.015625)"/>
        <path id="DejaVuSans-50" d="M 1259 4147 
L 1259 2394 
L 2053 2394 
Q 2494 2394 2734 2622 
Q 2975 2850 2975 3272 
Q 2975 3691 2734 3919 
Q 2494 4147 2053 4147 
L 1259 4147 
z
M 628 4666 
L 2053 4666 
Q 2838 4666 3239 4311 
Q 3641 3956 3641 3272 
Q 3641 2581 3239 2228 
Q 2838 1875 2053 1875 
L 1259 1875 
L 1259 0 
L 628 0 
L 628 4666 
z
" transform="scale(0.015625)"/>
        <path id="DejaVuSans-4e" d="M 628 4666 
L 1478 4666 
L 3547 763 
L 3547 4666 
L 4159 4666 
L 4159 0 
L 3309 0 
L 1241 3903 
L 1241 0 
L 628 0 
L 628 4666 
z
" transform="scale(0.015625)"/>
        <path id="DejaVuSans-44" d="M 1259 4147 
L 1259 519 
L 2022 519 
Q 2988 519 3436 956 
Q 3884 1394 3884 2338 
Q 3884 3275 3436 3711 
Q 2988 4147 2022 4147 
L 1259 4147 
z
M 628 4666 
L 1925 4666 
Q 3281 4666 3915 4102 
Q 4550 3538 4550 2338 
Q 4550 1131 3912 565 
Q 3275 0 1925 0 
L 628 0 
L 628 4666 
z
" transform="scale(0.015625)"/>
        <path id="DejaVuSans-4c" d="M 628 4666 
L 1259 4666 
L 1259 531 
L 3531 531 
L 3531 0 
L 628 0 
L 628 4666 
z
" transform="scale(0.015625)"/>
        <path id="DejaVuSans-45" d="M 628 4666 
L 3578 4666 
L 3578 4134 
L 1259 4134 
L 1259 2753 
L 3481 2753 
L 3481 2222 
L 1259 2222 
L 1259 531 
L 3634 531 
L 3634 0 
L 628 0 
L 628 4666 
z
" transform="scale(0.015625)"/>
       </defs>
       <use xlink:href="#DejaVuSans-4d"/>
       <use xlink:href="#DejaVuSans-49" x="86.279297"/>
       <use xlink:href="#DejaVuSans-54" x="115.771484"/>
       <use xlink:href="#DejaVuSans-4f" x="176.855469"/>
       <use xlink:href="#DejaVuSans-54" x="255.566406"/>
       <use xlink:href="#DejaVuSans-49" x="316.650391"/>
       <use xlink:href="#DejaVuSans-43" x="346.142578"/>
       <use xlink:href="#DejaVuSans-5f" x="415.966797"/>
       <use xlink:href="#DejaVuSans-53" x="465.966797"/>
       <use xlink:href="#DejaVuSans-50" x="529.443359"/>
       <use xlink:href="#DejaVuSans-49" x="589.746094"/>
       <use xlink:href="#DejaVuSans-4e" x="619.238281"/>
       <use xlink:href="#DejaVuSans-44" x="694.042969"/>
       <use xlink:href="#DejaVuSans-4c" x="771.044922"/>
       <use xlink:href="#DejaVuSans-45" x="826.757812"/>
      </g>
     </g>
    </g>
    <g id="ytick_2">
     <g id="line2d_5">
      <g>
       <use xlink:href="#md22f70a726" x="171.96" y="159.117216" style="stroke: #000000; stroke-width: 0.8"/>
      </g>
     </g>
     <g id="text_5">
      <!-- TGF_BETA_SIGNALING -->
      <g transform="translate(178.96 162.828153) scale(0.1 -0.1)">
       <defs>
        <path id="DejaVuSans-47" d="M 3809 666 
L 3809 1919 
L 2778 1919 
L 2778 2438 
L 4434 2438 
L 4434 434 
Q 4069 175 3628 42 
Q 3188 -91 2688 -91 
Q 1594 -91 976 548 
Q 359 1188 359 2328 
Q 359 3472 976 4111 
Q 1594 4750 2688 4750 
Q 3144 4750 3555 4637 
Q 3966 4525 4313 4306 
L 4313 3634 
Q 3963 3931 3569 4081 
Q 3175 4231 2741 4231 
Q 1884 4231 1454 3753 
Q 1025 3275 1025 2328 
Q 1025 1384 1454 906 
Q 1884 428 2741 428 
Q 3075 428 3337 486 
Q 3600 544 3809 666 
z
" transform="scale(0.015625)"/>
        <path id="DejaVuSans-46" d="M 628 4666 
L 3309 4666 
L 3309 4134 
L 1259 4134 
L 1259 2759 
L 3109 2759 
L 3109 2228 
L 1259 2228 
L 1259 0 
L 628 0 
L 628 4666 
z
" transform="scale(0.015625)"/>
        <path id="DejaVuSans-42" d="M 1259 2228 
L 1259 519 
L 2272 519 
Q 2781 519 3026 730 
Q 3272 941 3272 1375 
Q 3272 1813 3026 2020 
Q 2781 2228 2272 2228 
L 1259 2228 
z
M 1259 4147 
L 1259 2741 
L 2194 2741 
Q 2656 2741 2882 2914 
Q 3109 3088 3109 3444 
Q 3109 3797 2882 3972 
Q 2656 4147 2194 4147 
L 1259 4147 
z
M 628 4666 
L 2241 4666 
Q 2963 4666 3353 4366 
Q 3744 4066 3744 3513 
Q 3744 3084 3544 2831 
Q 3344 2578 2956 2516 
Q 3422 2416 3680 2098 
Q 3938 1781 3938 1306 
Q 3938 681 3513 340 
Q 3088 0 2303 0 
L 628 0 
L 628 4666 
z
" transform="scale(0.015625)"/>
        <path id="DejaVuSans-41" d="M 2188 4044 
L 1331 1722 
L 3047 1722 
L 2188 4044 
z
M 1831 4666 
L 2547 4666 
L 4325 0 
L 3669 0 
L 3244 1197 
L 1141 1197 
L 716 0 
L 50 0 
L 1831 4666 
z
" transform="scale(0.015625)"/>
       </defs>
       <use xlink:href="#DejaVuSans-54"/>
       <use xlink:href="#DejaVuSans-47" x="61.083984"/>
       <use xlink:href="#DejaVuSans-46" x="138.574219"/>
       <use xlink:href="#DejaVuSans-5f" x="196.09375"/>
       <use xlink:href="#DejaVuSans-42" x="246.09375"/>
       <use xlink:href="#DejaVuSans-45" x="314.697266"/>
       <use xlink:href="#DejaVuSans-54" x="377.880859"/>
       <use xlink:href="#DejaVuSans-41" x="431.214844"/>
       <use xlink:href="#DejaVuSans-5f" x="499.623047"/>
       <use xlink:href="#DejaVuSans-53" x="549.623047"/>
       <use xlink:href="#DejaVuSans-49" x="613.099609"/>
       <use xlink:href="#DejaVuSans-47" x="642.591797"/>
       <use xlink:href="#DejaVuSans-4e" x="720.082031"/>
       <use xlink:href="#DejaVuSans-41" x="794.886719"/>
       <use xlink:href="#DejaVuSans-4c" x="863.294922"/>
       <use xlink:href="#DejaVuSans-49" x="919.007812"/>
       <use xlink:href="#DejaVuSans-4e" x="948.5"/>
       <use xlink:href="#DejaVuSans-47" x="1023.304688"/>
      </g>
     </g>
    </g>
    <g id="ytick_3">
     <g id="line2d_6">
      <g>
       <use xlink:href="#md22f70a726" x="171.96" y="140.630852" style="stroke: #000000; stroke-width: 0.8"/>
      </g>
     </g>
     <g id="text_6">
      <!-- MYOGENESIS -->
      <g transform="translate(178.96 144.430071) scale(0.1 -0.1)">
       <defs>
        <path id="DejaVuSans-59" d="M -13 4666 
L 666 4666 
L 1959 2747 
L 3244 4666 
L 3922 4666 
L 2272 2222 
L 2272 0 
L 1638 0 
L 1638 2222 
L -13 4666 
z
" transform="scale(0.015625)"/>
       </defs>
       <use xlink:href="#DejaVuSans-4d"/>
       <use xlink:href="#DejaVuSans-59" x="86.279297"/>
       <use xlink:href="#DejaVuSans-4f" x="141.863281"/>
       <use xlink:href="#DejaVuSans-47" x="220.574219"/>
       <use xlink:href="#DejaVuSans-45" x="298.064453"/>
       <use xlink:href="#DejaVuSans-4e" x="361.248047"/>
       <use xlink:href="#DejaVuSans-45" x="436.052734"/>
       <use xlink:href="#DejaVuSans-53" x="499.236328"/>
       <use xlink:href="#DejaVuSans-49" x="562.712891"/>
       <use xlink:href="#DejaVuSans-53" x="592.205078"/>
      </g>
     </g>
    </g>
    <g id="ytick_4">
     <g id="line2d_7">
      <g>
       <use xlink:href="#md22f70a726" x="171.96" y="122.144489" style="stroke: #000000; stroke-width: 0.8"/>
      </g>
     </g>
     <g id="text_7">
      <!-- APICAL_JUNCTION -->
      <g transform="translate(178.96 125.855426) scale(0.1 -0.1)">
       <defs>
        <path id="DejaVuSans-4a" d="M 628 4666 
L 1259 4666 
L 1259 325 
Q 1259 -519 939 -900 
Q 619 -1281 -91 -1281 
L -331 -1281 
L -331 -750 
L -134 -750 
Q 284 -750 456 -515 
Q 628 -281 628 325 
L 628 4666 
z
" transform="scale(0.015625)"/>
        <path id="DejaVuSans-55" d="M 556 4666 
L 1191 4666 
L 1191 1831 
Q 1191 1081 1462 751 
Q 1734 422 2344 422 
Q 2950 422 3222 751 
Q 3494 1081 3494 1831 
L 3494 4666 
L 4128 4666 
L 4128 1753 
Q 4128 841 3676 375 
Q 3225 -91 2344 -91 
Q 1459 -91 1007 375 
Q 556 841 556 1753 
L 556 4666 
z
" transform="scale(0.015625)"/>
       </defs>
       <use xlink:href="#DejaVuSans-41"/>
       <use xlink:href="#DejaVuSans-50" x="68.408203"/>
       <use xlink:href="#DejaVuSans-49" x="128.710938"/>
       <use xlink:href="#DejaVuSans-43" x="158.203125"/>
       <use xlink:href="#DejaVuSans-41" x="228.027344"/>
       <use xlink:href="#DejaVuSans-4c" x="296.435547"/>
       <use xlink:href="#DejaVuSans-5f" x="352.148438"/>
       <use xlink:href="#DejaVuSans-4a" x="402.148438"/>
       <use xlink:href="#DejaVuSans-55" x="431.640625"/>
       <use xlink:href="#DejaVuSans-4e" x="504.833984"/>
       <use xlink:href="#DejaVuSans-43" x="579.638672"/>
       <use xlink:href="#DejaVuSans-54" x="649.462891"/>
       <use xlink:href="#DejaVuSans-49" x="710.546875"/>
       <use xlink:href="#DejaVuSans-4f" x="740.039062"/>
       <use xlink:href="#DejaVuSans-4e" x="818.75"/>
      </g>
     </g>
    </g>
    <g id="ytick_5">
     <g id="line2d_8">
      <g>
       <use xlink:href="#md22f70a726" x="171.96" y="103.658125" style="stroke: #000000; stroke-width: 0.8"/>
      </g>
     </g>
     <g id="text_8">
      <!-- EPITHELIAL_MESENCHYMAL_TRANSITION -->
      <g transform="translate(178.96 107.369062) scale(0.1 -0.1)">
       <defs>
        <path id="DejaVuSans-48" d="M 628 4666 
L 1259 4666 
L 1259 2753 
L 3553 2753 
L 3553 4666 
L 4184 4666 
L 4184 0 
L 3553 0 
L 3553 2222 
L 1259 2222 
L 1259 0 
L 628 0 
L 628 4666 
z
" transform="scale(0.015625)"/>
        <path id="DejaVuSans-52" d="M 2841 2188 
Q 3044 2119 3236 1894 
Q 3428 1669 3622 1275 
L 4263 0 
L 3584 0 
L 2988 1197 
Q 2756 1666 2539 1819 
Q 2322 1972 1947 1972 
L 1259 1972 
L 1259 0 
L 628 0 
L 628 4666 
L 2053 4666 
Q 2853 4666 3247 4331 
Q 3641 3997 3641 3322 
Q 3641 2881 3436 2590 
Q 3231 2300 2841 2188 
z
M 1259 4147 
L 1259 2491 
L 2053 2491 
Q 2509 2491 2742 2702 
Q 2975 2913 2975 3322 
Q 2975 3731 2742 3939 
Q 2509 4147 2053 4147 
L 1259 4147 
z
" transform="scale(0.015625)"/>
       </defs>
       <use xlink:href="#DejaVuSans-45"/>
       <use xlink:href="#DejaVuSans-50" x="63.183594"/>
       <use xlink:href="#DejaVuSans-49" x="123.486328"/>
       <use xlink:href="#DejaVuSans-54" x="152.978516"/>
       <use xlink:href="#DejaVuSans-48" x="214.0625"/>
       <use xlink:href="#DejaVuSans-45" x="289.257812"/>
       <use xlink:href="#DejaVuSans-4c" x="352.441406"/>
       <use xlink:href="#DejaVuSans-49" x="408.154297"/>
       <use xlink:href="#DejaVuSans-41" x="437.646484"/>
       <use xlink:href="#DejaVuSans-4c" x="506.054688"/>
       <use xlink:href="#DejaVuSans-5f" x="561.767578"/>
       <use xlink:href="#DejaVuSans-4d" x="611.767578"/>
       <use xlink:href="#DejaVuSans-45" x="698.046875"/>
       <use xlink:href="#DejaVuSans-53" x="761.230469"/>
       <use xlink:href="#DejaVuSans-45" x="824.707031"/>
       <use xlink:href="#DejaVuSans-4e" x="887.890625"/>
       <use xlink:href="#DejaVuSans-43" x="962.695312"/>
       <use xlink:href="#DejaVuSans-48" x="1032.519531"/>
       <use xlink:href="#DejaVuSans-59" x="1107.714844"/>
       <use xlink:href="#DejaVuSans-4d" x="1168.798828"/>
       <use xlink:href="#DejaVuSans-41" x="1255.078125"/>
       <use xlink:href="#DejaVuSans-4c" x="1323.486328"/>
       <use xlink:href="#DejaVuSans-5f" x="1379.199219"/>
       <use xlink:href="#DejaVuSans-54" x="1429.199219"/>
       <use xlink:href="#DejaVuSans-52" x="1490.283203"/>
       <use xlink:href="#DejaVuSans-41" x="1555.765625"/>
       <use xlink:href="#DejaVuSans-4e" x="1624.173828"/>
       <use xlink:href="#DejaVuSans-53" x="1698.978516"/>
       <use xlink:href="#DejaVuSans-49" x="1762.455078"/>
       <use xlink:href="#DejaVuSans-54" x="1791.947266"/>
       <use xlink:href="#DejaVuSans-49" x="1853.03125"/>
       <use xlink:href="#DejaVuSans-4f" x="1882.523438"/>
       <use xlink:href="#DejaVuSans-4e" x="1961.234375"/>
      </g>
     </g>
    </g>
    <g id="ytick_6">
     <g id="line2d_9">
      <g>
       <use xlink:href="#md22f70a726" x="171.96" y="85.171761" style="stroke: #000000; stroke-width: 0.8"/>
      </g>
     </g>
     <g id="text_9">
      <!-- TNFA_SIGNALING_VIA_NFKB -->
      <g transform="translate(178.96 88.882699) scale(0.1 -0.1)">
       <defs>
        <path id="DejaVuSans-56" d="M 1831 0 
L 50 4666 
L 709 4666 
L 2188 738 
L 3669 4666 
L 4325 4666 
L 2547 0 
L 1831 0 
z
" transform="scale(0.015625)"/>
        <path id="DejaVuSans-4b" d="M 628 4666 
L 1259 4666 
L 1259 2694 
L 3353 4666 
L 4166 4666 
L 1850 2491 
L 4331 0 
L 3500 0 
L 1259 2247 
L 1259 0 
L 628 0 
L 628 4666 
z
" transform="scale(0.015625)"/>
       </defs>
       <use xlink:href="#DejaVuSans-54"/>
       <use xlink:href="#DejaVuSans-4e" x="61.083984"/>
       <use xlink:href="#DejaVuSans-46" x="135.888672"/>
       <use xlink:href="#DejaVuSans-41" x="184.283203"/>
       <use xlink:href="#DejaVuSans-5f" x="252.691406"/>
       <use xlink:href="#DejaVuSans-53" x="302.691406"/>
       <use xlink:href="#DejaVuSans-49" x="366.167969"/>
       <use xlink:href="#DejaVuSans-47" x="395.660156"/>
       <use xlink:href="#DejaVuSans-4e" x="473.150391"/>
       <use xlink:href="#DejaVuSans-41" x="547.955078"/>
       <use xlink:href="#DejaVuSans-4c" x="616.363281"/>
       <use xlink:href="#DejaVuSans-49" x="672.076172"/>
       <use xlink:href="#DejaVuSans-4e" x="701.568359"/>
       <use xlink:href="#DejaVuSans-47" x="776.373047"/>
       <use xlink:href="#DejaVuSans-5f" x="853.863281"/>
       <use xlink:href="#DejaVuSans-56" x="903.863281"/>
       <use xlink:href="#DejaVuSans-49" x="972.271484"/>
       <use xlink:href="#DejaVuSans-41" x="1001.763672"/>
       <use xlink:href="#DejaVuSans-5f" x="1070.171875"/>
       <use xlink:href="#DejaVuSans-4e" x="1120.171875"/>
       <use xlink:href="#DejaVuSans-46" x="1194.976562"/>
       <use xlink:href="#DejaVuSans-4b" x="1252.496094"/>
       <use xlink:href="#DejaVuSans-42" x="1318.072266"/>
      </g>
     </g>
    </g>
    <g id="ytick_7">
     <g id="line2d_10">
      <g>
       <use xlink:href="#md22f70a726" x="171.96" y="66.685398" style="stroke: #000000; stroke-width: 0.8"/>
      </g>
     </g>
     <g id="text_10">
      <!-- MTORC1_SIGNALING -->
      <g transform="translate(178.96 70.396335) scale(0.1 -0.1)">
       <defs>
        <path id="DejaVuSans-31" d="M 794 531 
L 1825 531 
L 1825 4091 
L 703 3866 
L 703 4441 
L 1819 4666 
L 2450 4666 
L 2450 531 
L 3481 531 
L 3481 0 
L 794 0 
L 794 531 
z
" transform="scale(0.015625)"/>
       </defs>
       <use xlink:href="#DejaVuSans-4d"/>
       <use xlink:href="#DejaVuSans-54" x="86.279297"/>
       <use xlink:href="#DejaVuSans-4f" x="147.363281"/>
       <use xlink:href="#DejaVuSans-52" x="226.074219"/>
       <use xlink:href="#DejaVuSans-43" x="290.556641"/>
       <use xlink:href="#DejaVuSans-31" x="360.380859"/>
       <use xlink:href="#DejaVuSans-5f" x="424.003906"/>
       <use xlink:href="#DejaVuSans-53" x="474.003906"/>
       <use xlink:href="#DejaVuSans-49" x="537.480469"/>
       <use xlink:href="#DejaVuSans-47" x="566.972656"/>
       <use xlink:href="#DejaVuSans-4e" x="644.462891"/>
       <use xlink:href="#DejaVuSans-41" x="719.267578"/>
       <use xlink:href="#DejaVuSans-4c" x="787.675781"/>
       <use xlink:href="#DejaVuSans-49" x="843.388672"/>
       <use xlink:href="#DejaVuSans-4e" x="872.880859"/>
       <use xlink:href="#DejaVuSans-47" x="947.685547"/>
      </g>
     </g>
    </g>
    <g id="ytick_8">
     <g id="line2d_11">
      <g>
       <use xlink:href="#md22f70a726" x="171.96" y="48.199034" style="stroke: #000000; stroke-width: 0.8"/>
      </g>
     </g>
     <g id="text_11">
      <!-- GLYCOLYSIS -->
      <g transform="translate(178.96 51.998253) scale(0.1 -0.1)">
       <use xlink:href="#DejaVuSans-47"/>
       <use xlink:href="#DejaVuSans-4c" x="77.490234"/>
       <use xlink:href="#DejaVuSans-59" x="119.953125"/>
       <use xlink:href="#DejaVuSans-43" x="175.537109"/>
       <use xlink:href="#DejaVuSans-4f" x="245.361328"/>
       <use xlink:href="#DejaVuSans-4c" x="324.072266"/>
       <use xlink:href="#DejaVuSans-59" x="366.535156"/>
       <use xlink:href="#DejaVuSans-53" x="427.619141"/>
       <use xlink:href="#DejaVuSans-49" x="491.095703"/>
       <use xlink:href="#DejaVuSans-53" x="520.587891"/>
      </g>
     </g>
    </g>
    <g id="ytick_9">
     <g id="line2d_12">
      <g>
       <use xlink:href="#md22f70a726" x="171.96" y="29.71267" style="stroke: #000000; stroke-width: 0.8"/>
      </g>
     </g>
     <g id="text_12">
      <!-- CHOLESTEROL_HOMEOSTASIS -->
      <g transform="translate(178.96 33.423608) scale(0.1 -0.1)">
       <use xlink:href="#DejaVuSans-43"/>
       <use xlink:href="#DejaVuSans-48" x="69.824219"/>
       <use xlink:href="#DejaVuSans-4f" x="145.019531"/>
       <use xlink:href="#DejaVuSans-4c" x="223.730469"/>
       <use xlink:href="#DejaVuSans-45" x="279.443359"/>
       <use xlink:href="#DejaVuSans-53" x="342.626953"/>
       <use xlink:href="#DejaVuSans-54" x="406.103516"/>
       <use xlink:href="#DejaVuSans-45" x="467.1875"/>
       <use xlink:href="#DejaVuSans-52" x="530.371094"/>
       <use xlink:href="#DejaVuSans-4f" x="599.853516"/>
       <use xlink:href="#DejaVuSans-4c" x="678.564453"/>
       <use xlink:href="#DejaVuSans-5f" x="734.277344"/>
       <use xlink:href="#DejaVuSans-48" x="784.277344"/>
       <use xlink:href="#DejaVuSans-4f" x="859.472656"/>
       <use xlink:href="#DejaVuSans-4d" x="938.183594"/>
       <use xlink:href="#DejaVuSans-45" x="1024.462891"/>
       <use xlink:href="#DejaVuSans-4f" x="1087.646484"/>
       <use xlink:href="#DejaVuSans-53" x="1166.357422"/>
       <use xlink:href="#DejaVuSans-54" x="1229.833984"/>
       <use xlink:href="#DejaVuSans-41" x="1283.167969"/>
       <use xlink:href="#DejaVuSans-53" x="1351.576172"/>
       <use xlink:href="#DejaVuSans-49" x="1415.052734"/>
       <use xlink:href="#DejaVuSans-53" x="1444.544922"/>
      </g>
     </g>
    </g>
   </g>
   <g id="LineCollection_1">
    <path d="M 93.235754 177.60358 
L 37.988409 177.60358 
" clip-path="url(#p73300a8366)" style="fill: none; stroke: #7570b3; stroke-width: 1.5"/>
    <path d="M 93.235754 159.117216 
L 28.291966 159.117216 
" clip-path="url(#p73300a8366)" style="fill: none; stroke: #7570b3; stroke-width: 1.5"/>
    <path d="M 93.235754 140.630852 
L 27.766389 140.630852 
" clip-path="url(#p73300a8366)" style="fill: none; stroke: #7570b3; stroke-width: 1.5"/>
    <path d="M 93.235754 122.144489 
L 26.805501 122.144489 
" clip-path="url(#p73300a8366)" style="fill: none; stroke: #7570b3; stroke-width: 1.5"/>
    <path d="M 93.235754 103.658125 
L 14.689091 103.658125 
" clip-path="url(#p73300a8366)" style="fill: none; stroke: #7570b3; stroke-width: 1.5"/>
    <path d="M 93.235754 85.171761 
L 25.088927 85.171761 
" clip-path="url(#p73300a8366)" style="fill: none; stroke: #7570b3; stroke-width: 1.5"/>
    <path d="M 93.235754 66.685398 
L 159.491813 66.685398 
" clip-path="url(#p73300a8366)" style="fill: none; stroke: #7570b3; stroke-width: 1.5"/>
    <path d="M 93.235754 48.199034 
L 164.062115 48.199034 
" clip-path="url(#p73300a8366)" style="fill: none; stroke: #7570b3; stroke-width: 1.5"/>
    <path d="M 93.235754 29.71267 
L 164.470909 29.71267 
" clip-path="url(#p73300a8366)" style="fill: none; stroke: #7570b3; stroke-width: 1.5"/>
   </g>
   <g id="line2d_13">
    <defs>
     <path id="md10943f0c2" d="M 0 3 
C 0.795609 3 1.55874 2.683901 2.12132 2.12132 
C 2.683901 1.55874 3 0.795609 3 0 
C 3 -0.795609 2.683901 -1.55874 2.12132 -2.12132 
C 1.55874 -2.683901 0.795609 -3 0 -3 
C -0.795609 -3 -1.55874 -2.683901 -2.12132 -2.12132 
C -2.683901 -1.55874 -3 -0.795609 -3 0 
C -3 0.795609 -2.683901 1.55874 -2.12132 2.12132 
C -1.55874 2.683901 -0.795609 3 0 3 
z
" style="stroke: #7570b3"/>
    </defs>
    <g clip-path="url(#p73300a8366)">
     <use xlink:href="#md10943f0c2" x="37.988409" y="177.60358" style="fill: #7570b3; stroke: #7570b3"/>
     <use xlink:href="#md10943f0c2" x="28.291966" y="159.117216" style="fill: #7570b3; stroke: #7570b3"/>
     <use xlink:href="#md10943f0c2" x="27.766389" y="140.630852" style="fill: #7570b3; stroke: #7570b3"/>
     <use xlink:href="#md10943f0c2" x="26.805501" y="122.144489" style="fill: #7570b3; stroke: #7570b3"/>
     <use xlink:href="#md10943f0c2" x="14.689091" y="103.658125" style="fill: #7570b3; stroke: #7570b3"/>
     <use xlink:href="#md10943f0c2" x="25.088927" y="85.171761" style="fill: #7570b3; stroke: #7570b3"/>
     <use xlink:href="#md10943f0c2" x="159.491813" y="66.685398" style="fill: #7570b3; stroke: #7570b3"/>
     <use xlink:href="#md10943f0c2" x="164.062115" y="48.199034" style="fill: #7570b3; stroke: #7570b3"/>
     <use xlink:href="#md10943f0c2" x="164.470909" y="29.71267" style="fill: #7570b3; stroke: #7570b3"/>
    </g>
   </g>
   <g id="line2d_14">
    <path d="M 93.235754 177.60358 
L 93.235754 29.71267 
" clip-path="url(#p73300a8366)" style="fill: none; stroke: #d62728; stroke-width: 1.5; stroke-linecap: square"/>
   </g>
   <g id="patch_3">
    <path d="M 7.2 184.998125 
L 7.2 22.318125 
" style="fill: none; stroke: #000000; stroke-width: 0.8; stroke-linejoin: miter; stroke-linecap: square"/>
   </g>
   <g id="patch_4">
    <path d="M 171.96 184.998125 
L 171.96 22.318125 
" style="fill: none; stroke: #000000; stroke-width: 0.8; stroke-linejoin: miter; stroke-linecap: square"/>
   </g>
   <g id="patch_5">
    <path d="M 7.2 184.998125 
L 171.96 184.998125 
" style="fill: none; stroke: #000000; stroke-width: 0.8; stroke-linejoin: miter; stroke-linecap: square"/>
   </g>
   <g id="patch_6">
    <path d="M 7.2 22.318125 
L 171.96 22.318125 
" style="fill: none; stroke: #000000; stroke-width: 0.8; stroke-linejoin: miter; stroke-linecap: square"/>
   </g>
   <g id="text_13">
    <!-- Classical -->
    <g transform="translate(63.485625 16.318125) scale(0.12 -0.12)">
     <defs>
      <path id="DejaVuSans-6c" d="M 603 4863 
L 1178 4863 
L 1178 0 
L 603 0 
L 603 4863 
z
" transform="scale(0.015625)"/>
      <path id="DejaVuSans-61" d="M 2194 1759 
Q 1497 1759 1228 1600 
Q 959 1441 959 1056 
Q 959 750 1161 570 
Q 1363 391 1709 391 
Q 2188 391 2477 730 
Q 2766 1069 2766 1631 
L 2766 1759 
L 2194 1759 
z
M 3341 1997 
L 3341 0 
L 2766 0 
L 2766 531 
Q 2569 213 2275 61 
Q 1981 -91 1556 -91 
Q 1019 -91 701 211 
Q 384 513 384 1019 
Q 384 1609 779 1909 
Q 1175 2209 1959 2209 
L 2766 2209 
L 2766 2266 
Q 2766 2663 2505 2880 
Q 2244 3097 1772 3097 
Q 1472 3097 1187 3025 
Q 903 2953 641 2809 
L 641 3341 
Q 956 3463 1253 3523 
Q 1550 3584 1831 3584 
Q 2591 3584 2966 3190 
Q 3341 2797 3341 1997 
z
" transform="scale(0.015625)"/>
      <path id="DejaVuSans-73" d="M 2834 3397 
L 2834 2853 
Q 2591 2978 2328 3040 
Q 2066 3103 1784 3103 
Q 1356 3103 1142 2972 
Q 928 2841 928 2578 
Q 928 2378 1081 2264 
Q 1234 2150 1697 2047 
L 1894 2003 
Q 2506 1872 2764 1633 
Q 3022 1394 3022 966 
Q 3022 478 2636 193 
Q 2250 -91 1575 -91 
Q 1294 -91 989 -36 
Q 684 19 347 128 
L 347 722 
Q 666 556 975 473 
Q 1284 391 1588 391 
Q 1994 391 2212 530 
Q 2431 669 2431 922 
Q 2431 1156 2273 1281 
Q 2116 1406 1581 1522 
L 1381 1569 
Q 847 1681 609 1914 
Q 372 2147 372 2553 
Q 372 3047 722 3315 
Q 1072 3584 1716 3584 
Q 2034 3584 2315 3537 
Q 2597 3491 2834 3397 
z
" transform="scale(0.015625)"/>
      <path id="DejaVuSans-69" d="M 603 3500 
L 1178 3500 
L 1178 0 
L 603 0 
L 603 3500 
z
M 603 4863 
L 1178 4863 
L 1178 4134 
L 603 4134 
L 603 4863 
z
" transform="scale(0.015625)"/>
      <path id="DejaVuSans-63" d="M 3122 3366 
L 3122 2828 
Q 2878 2963 2633 3030 
Q 2388 3097 2138 3097 
Q 1578 3097 1268 2742 
Q 959 2388 959 1747 
Q 959 1106 1268 751 
Q 1578 397 2138 397 
Q 2388 397 2633 464 
Q 2878 531 3122 666 
L 3122 134 
Q 2881 22 2623 -34 
Q 2366 -91 2075 -91 
Q 1284 -91 818 406 
Q 353 903 353 1747 
Q 353 2603 823 3093 
Q 1294 3584 2113 3584 
Q 2378 3584 2631 3529 
Q 2884 3475 3122 3366 
z
" transform="scale(0.015625)"/>
     </defs>
     <use xlink:href="#DejaVuSans-43"/>
     <use xlink:href="#DejaVuSans-6c" x="69.824219"/>
     <use xlink:href="#DejaVuSans-61" x="97.607422"/>
     <use xlink:href="#DejaVuSans-73" x="158.886719"/>
     <use xlink:href="#DejaVuSans-73" x="210.986328"/>
     <use xlink:href="#DejaVuSans-69" x="263.085938"/>
     <use xlink:href="#DejaVuSans-63" x="290.869141"/>
     <use xlink:href="#DejaVuSans-61" x="345.849609"/>
     <use xlink:href="#DejaVuSans-6c" x="407.128906"/>
    </g>
   </g>
  </g>
  <g id="axes_2">
   <g id="patch_7">
    <path d="M 396.84 184.998125 
L 561.6 184.998125 
L 561.6 22.318125 
L 396.84 22.318125 
z
" style="fill: #ffffff"/>
   </g>
   <g id="matplotlib.axis_3">
    <g id="xtick_4">
     <g id="line2d_15">
      <g>
       <use xlink:href="#m01b0fbb1ea" x="425.525564" y="184.998125" style="stroke: #000000; stroke-width: 0.8"/>
      </g>
     </g>
     <g id="text_14">
      <!-- −2 -->
      <g transform="translate(418.15447 199.596562) scale(0.1 -0.1)">
       <use xlink:href="#DejaVuSans-2212"/>
       <use xlink:href="#DejaVuSans-32" x="83.789062"/>
      </g>
     </g>
    </g>
    <g id="xtick_5">
     <g id="line2d_16">
      <g>
       <use xlink:href="#m01b0fbb1ea" x="485.729564" y="184.998125" style="stroke: #000000; stroke-width: 0.8"/>
      </g>
     </g>
     <g id="text_15">
      <!-- 0 -->
      <g transform="translate(482.548314 199.596562) scale(0.1 -0.1)">
       <use xlink:href="#DejaVuSans-30"/>
      </g>
     </g>
    </g>
    <g id="xtick_6">
     <g id="line2d_17">
      <g>
       <use xlink:href="#m01b0fbb1ea" x="545.933564" y="184.998125" style="stroke: #000000; stroke-width: 0.8"/>
      </g>
     </g>
     <g id="text_16">
      <!-- 2 -->
      <g transform="translate(542.752314 199.596562) scale(0.1 -0.1)">
       <use xlink:href="#DejaVuSans-32"/>
      </g>
     </g>
    </g>
   </g>
   <g id="matplotlib.axis_4">
    <g id="ytick_10">
     <g id="line2d_18">
      <defs>
       <path id="m47ccaa1756" d="M 0 0 
L -3.5 0 
" style="stroke: #000000; stroke-width: 0.8"/>
      </defs>
      <g>
       <use xlink:href="#m47ccaa1756" x="396.84" y="177.60358" style="stroke: #000000; stroke-width: 0.8"/>
      </g>
     </g>
    </g>
    <g id="ytick_11">
     <g id="line2d_19">
      <g>
       <use xlink:href="#m47ccaa1756" x="396.84" y="159.117216" style="stroke: #000000; stroke-width: 0.8"/>
      </g>
     </g>
    </g>
    <g id="ytick_12">
     <g id="line2d_20">
      <g>
       <use xlink:href="#m47ccaa1756" x="396.84" y="140.630852" style="stroke: #000000; stroke-width: 0.8"/>
      </g>
     </g>
    </g>
    <g id="ytick_13">
     <g id="line2d_21">
      <g>
       <use xlink:href="#m47ccaa1756" x="396.84" y="122.144489" style="stroke: #000000; stroke-width: 0.8"/>
      </g>
     </g>
    </g>
    <g id="ytick_14">
     <g id="line2d_22">
      <g>
       <use xlink:href="#m47ccaa1756" x="396.84" y="103.658125" style="stroke: #000000; stroke-width: 0.8"/>
      </g>
     </g>
    </g>
    <g id="ytick_15">
     <g id="line2d_23">
      <g>
       <use xlink:href="#m47ccaa1756" x="396.84" y="85.171761" style="stroke: #000000; stroke-width: 0.8"/>
      </g>
     </g>
    </g>
    <g id="ytick_16">
     <g id="line2d_24">
      <g>
       <use xlink:href="#m47ccaa1756" x="396.84" y="66.685398" style="stroke: #000000; stroke-width: 0.8"/>
      </g>
     </g>
    </g>
    <g id="ytick_17">
     <g id="line2d_25">
      <g>
       <use xlink:href="#m47ccaa1756" x="396.84" y="48.199034" style="stroke: #000000; stroke-width: 0.8"/>
      </g>
     </g>
    </g>
    <g id="ytick_18">
     <g id="line2d_26">
      <g>
       <use xlink:href="#m47ccaa1756" x="396.84" y="29.71267" style="stroke: #000000; stroke-width: 0.8"/>
      </g>
     </g>
    </g>
   </g>
   <g id="LineCollection_2">
    <path d="M 485.729564 177.60358 
L 419.585095 177.60358 
" clip-path="url(#pf0d1a9abd6)" style="fill: none; stroke: #1b9e77; stroke-width: 1.5"/>
    <path d="M 485.729564 159.117216 
L 425.787603 159.117216 
" clip-path="url(#pf0d1a9abd6)" style="fill: none; stroke: #1b9e77; stroke-width: 1.5"/>
    <path d="M 485.729564 140.630852 
L 409.909518 140.630852 
" clip-path="url(#pf0d1a9abd6)" style="fill: none; stroke: #1b9e77; stroke-width: 1.5"/>
    <path d="M 485.729564 122.144489 
L 422.355796 122.144489 
" clip-path="url(#pf0d1a9abd6)" style="fill: none; stroke: #1b9e77; stroke-width: 1.5"/>
    <path d="M 485.729564 103.658125 
L 404.329091 103.658125 
" clip-path="url(#pf0d1a9abd6)" style="fill: none; stroke: #1b9e77; stroke-width: 1.5"/>
    <path d="M 485.729564 85.171761 
L 430.370608 85.171761 
" clip-path="url(#pf0d1a9abd6)" style="fill: none; stroke: #1b9e77; stroke-width: 1.5"/>
    <path d="M 485.729564 66.685398 
L 554.110909 66.685398 
" clip-path="url(#pf0d1a9abd6)" style="fill: none; stroke: #1b9e77; stroke-width: 1.5"/>
    <path d="M 485.729564 48.199034 
L 541.048644 48.199034 
" clip-path="url(#pf0d1a9abd6)" style="fill: none; stroke: #1b9e77; stroke-width: 1.5"/>
    <path d="M 485.729564 29.71267 
L 551.167314 29.71267 
" clip-path="url(#pf0d1a9abd6)" style="fill: none; stroke: #1b9e77; stroke-width: 1.5"/>
   </g>
   <g id="line2d_27">
    <defs>
     <path id="m6a6248d8b0" d="M 0 3 
C 0.795609 3 1.55874 2.683901 2.12132 2.12132 
C 2.683901 1.55874 3 0.795609 3 0 
C 3 -0.795609 2.683901 -1.55874 2.12132 -2.12132 
C 1.55874 -2.683901 0.795609 -3 0 -3 
C -0.795609 -3 -1.55874 -2.683901 -2.12132 -2.12132 
C -2.683901 -1.55874 -3 -0.795609 -3 0 
C -3 0.795609 -2.683901 1.55874 -2.12132 2.12132 
C -1.55874 2.683901 -0.795609 3 0 3 
z
" style="stroke: #1b9e77"/>
    </defs>
    <g clip-path="url(#pf0d1a9abd6)">
     <use xlink:href="#m6a6248d8b0" x="419.585095" y="177.60358" style="fill: #1b9e77; stroke: #1b9e77"/>
     <use xlink:href="#m6a6248d8b0" x="425.787603" y="159.117216" style="fill: #1b9e77; stroke: #1b9e77"/>
     <use xlink:href="#m6a6248d8b0" x="409.909518" y="140.630852" style="fill: #1b9e77; stroke: #1b9e77"/>
     <use xlink:href="#m6a6248d8b0" x="422.355796" y="122.144489" style="fill: #1b9e77; stroke: #1b9e77"/>
     <use xlink:href="#m6a6248d8b0" x="404.329091" y="103.658125" style="fill: #1b9e77; stroke: #1b9e77"/>
     <use xlink:href="#m6a6248d8b0" x="430.370608" y="85.171761" style="fill: #1b9e77; stroke: #1b9e77"/>
     <use xlink:href="#m6a6248d8b0" x="554.110909" y="66.685398" style="fill: #1b9e77; stroke: #1b9e77"/>
     <use xlink:href="#m6a6248d8b0" x="541.048644" y="48.199034" style="fill: #1b9e77; stroke: #1b9e77"/>
     <use xlink:href="#m6a6248d8b0" x="551.167314" y="29.71267" style="fill: #1b9e77; stroke: #1b9e77"/>
    </g>
   </g>
   <g id="line2d_28">
    <path d="M 485.729564 177.60358 
L 485.729564 29.71267 
" clip-path="url(#pf0d1a9abd6)" style="fill: none; stroke: #d62728; stroke-width: 1.5; stroke-linecap: square"/>
   </g>
   <g id="patch_8">
    <path d="M 396.84 184.998125 
L 396.84 22.318125 
" style="fill: none; stroke: #000000; stroke-width: 0.8; stroke-linejoin: miter; stroke-linecap: square"/>
   </g>
   <g id="patch_9">
    <path d="M 561.6 184.998125 
L 561.6 22.318125 
" style="fill: none; stroke: #000000; stroke-width: 0.8; stroke-linejoin: miter; stroke-linecap: square"/>
   </g>
   <g id="patch_10">
    <path d="M 396.84 184.998125 
L 561.6 184.998125 
" style="fill: none; stroke: #000000; stroke-width: 0.8; stroke-linejoin: miter; stroke-linecap: square"/>
   </g>
   <g id="patch_11">
    <path d="M 396.84 22.318125 
L 561.6 22.318125 
" style="fill: none; stroke: #000000; stroke-width: 0.8; stroke-linejoin: miter; stroke-linecap: square"/>
   </g>
   <g id="text_17">
    <!-- Basal -->
    <g transform="translate(462.957187 16.318125) scale(0.12 -0.12)">
     <use xlink:href="#DejaVuSans-42"/>
     <use xlink:href="#DejaVuSans-61" x="68.603516"/>
     <use xlink:href="#DejaVuSans-73" x="129.882812"/>
     <use xlink:href="#DejaVuSans-61" x="181.982422"/>
     <use xlink:href="#DejaVuSans-6c" x="243.261719"/>
    </g>
   </g>
  </g>
 </g>
 <defs>
  <clipPath id="p73300a8366">
   <rect x="7.2" y="22.318125" width="164.76" height="162.68"/>
  </clipPath>
  <clipPath id="pf0d1a9abd6">
   <rect x="396.84" y="22.318125" width="164.76" height="162.68"/>
  </clipPath>
 </defs>
</svg>
